<?xml version="1.0" encoding="UTF-8" standalone="no"?>
<!DOCTYPE svg PUBLIC "-//W3C//DTD SVG 1.1//EN" "http://www.w3.org/Graphics/SVG/1.1/DTD/svg11.dtd">
<svg width="100%" height="100%" viewBox="0 0 460 120" version="1.1" xmlns="http://www.w3.org/2000/svg" xmlns:xlink="http://www.w3.org/1999/xlink" xml:space="preserve" xmlns:serif="http://www.serif.com/" style="fill-rule:evenodd;clip-rule:evenodd;stroke-linejoin:round;stroke-miterlimit:2;">
    <g transform="matrix(1.75446,0,0,1.75446,-670.82,-854.179)">
        <g transform="matrix(113.995,0,0,113.995,386,545)">
            <path d="M0.667,-0.009L0.572,-0.009L0.556,0.089L0.354,0.089L0.37,-0.009L0.272,-0.009L0.256,0.089L0.054,0.089L0.07,-0.009L-0.03,-0.009L0.049,-0.509L0.246,-0.509L0.183,-0.111L0.281,-0.111L0.296,-0.209L0.398,-0.209L0.383,-0.111L0.481,-0.111L0.544,-0.509L0.746,-0.509L0.667,-0.009Z" style="fill-rule:nonzero;"/>
        </g>
        <g transform="matrix(113.995,0,0,113.995,474.802,545)">
            <path d="M0.667,-0.011L0.568,-0.011L0.552,0.089L-0.046,0.089L-0.03,-0.009L0.468,-0.009L0.484,-0.107L0.083,-0.107L0.098,-0.207L0.001,-0.207L0.033,-0.411L0.131,-0.411L0.146,-0.509L0.647,-0.509L0.632,-0.413L0.731,-0.413L0.715,-0.311L0.516,-0.311L0.531,-0.406L0.232,-0.406L0.202,-0.214L0.6,-0.214L0.585,-0.113L0.683,-0.113L0.667,-0.011Z" style="fill-rule:nonzero;"/>
        </g>
        <g transform="matrix(113.995,0,0,113.995,560.983,545)">
            <path d="M0.667,-0.011L0.568,-0.011L0.552,0.089L-0.046,0.089L-0.03,-0.009L0.468,-0.009L0.484,-0.107L0.083,-0.107L0.098,-0.207L0.001,-0.207L0.033,-0.411L0.131,-0.411L0.146,-0.509L0.647,-0.509L0.632,-0.413L0.731,-0.413L0.715,-0.311L0.516,-0.311L0.531,-0.406L0.232,-0.406L0.202,-0.214L0.6,-0.214L0.585,-0.113L0.683,-0.113L0.667,-0.011Z" style="fill-rule:nonzero;"/>
        </g>
    </g>
</svg>
